<svg width='200' height='200' fill="#EC5D57" xmlns="http://www.w3.org/2000/svg" xmlns:xlink="http://www.w3.org/1999/xlink" version="1.1" x="0px" y="0px" viewBox="0 0 100 84" enable-background="new 0 0 100 84" xml:space="preserve"><path fill="#EC5D57" d="M98.533,77.393L55.219,4.181c-2.844-5.575-7.616-5.575-10.46,0L1.444,77.393  C-0.89,80.715,0.329,83.829,4.54,84h90.898C99.668,84.018,100.908,81.345,98.533,77.393z M47.297,25.256  c0.709-0.769,1.598-1.148,2.696-1.148c1.088,0,1.987,0.379,2.686,1.128c0.709,0.749,1.059,1.697,1.059,2.826  c0,0.979-0.319,4.254-0.969,9.826c-0.639,5.583-1.208,10.975-1.697,16.177h-2.277c-0.429-5.202-0.958-10.595-1.598-16.177  c-0.629-5.572-0.949-8.848-0.949-9.826C46.249,26.954,46.599,26.015,47.297,25.256z M52.82,66.139  c-0.799,0.769-1.738,1.158-2.827,1.158c-1.099,0-2.037-0.39-2.826-1.158c-0.789-0.77-1.188-1.708-1.188-2.797  c0-1.088,0.399-2.037,1.188-2.826c0.789-0.789,1.728-1.178,2.826-1.178c1.088,0,2.028,0.389,2.827,1.178  c0.788,0.789,1.178,1.738,1.178,2.826C53.998,64.431,53.608,65.369,52.82,66.139z"/></svg>