<svg version="1.2" xmlns="http://www.w3.org/2000/svg" xmlns:xlink="http://www.w3.org/1999/xlink" overflow="visible" preserveAspectRatio="none" viewBox="0 0 24 24" width="40" height="40"><g><path xmlns:default="http://www.w3.org/2000/svg" id="building-o" d="M8.57,16.1C8.51,16.04,8.43,16,8.34,16H7.67c-0.18,0.01-0.32,0.15-0.33,0.33V17  c0.01,0.18,0.15,0.32,0.33,0.33h0.67c0.18-0.01,0.32-0.15,0.33-0.33v-0.67C8.67,16.24,8.63,16.16,8.57,16.1z M8.57,13.43  c-0.06-0.06-0.14-0.1-0.23-0.1H7.67c-0.18,0.01-0.32,0.15-0.33,0.33v0.67c0.01,0.18,0.15,0.32,0.33,0.33h0.67  c0.18-0.01,0.32-0.15,0.33-0.33v-0.66C8.67,13.58,8.64,13.49,8.57,13.43z M11.33,13.66c-0.01-0.18-0.15-0.32-0.33-0.33h-0.67  c-0.18,0.01-0.32,0.15-0.33,0.33v0.67c0.01,0.18,0.15,0.32,0.33,0.33H11c0.18-0.01,0.32-0.15,0.33-0.33v-0.66l0,0V13.66z   M8.57,10.76c-0.06-0.06-0.14-0.1-0.23-0.1H7.67c-0.18,0.01-0.32,0.15-0.33,0.33v0.67c0.01,0.18,0.15,0.32,0.33,0.33h0.67  c0.18-0.01,0.32-0.15,0.33-0.33V11c0-0.09-0.04-0.17-0.1-0.23V10.76z M16.57,16.09c-0.06-0.06-0.14-0.1-0.23-0.1h-0.68  c-0.18,0.01-0.32,0.15-0.33,0.33V17c0.01,0.18,0.15,0.32,0.33,0.33h0.67c0.18-0.01,0.32-0.15,0.33-0.33v-0.67  c0-0.09-0.03-0.17-0.09-0.23V16.09z M14,13.67c-0.01-0.18-0.15-0.32-0.33-0.33H13c-0.18,0.01-0.32,0.15-0.33,0.33v0.67  c0.01,0.18,0.15,0.32,0.33,0.33h0.67c0.18-0.01,0.33-0.16,0.33-0.34V13.67L14,13.67z M11.33,11c-0.01-0.18-0.15-0.32-0.33-0.33  h-0.67C10.15,10.68,10.01,10.82,10,11v0.67c0.01,0.18,0.15,0.32,0.33,0.33H11c0.18-0.01,0.32-0.15,0.33-0.33V11L11.33,11z M8.57,8.1  C8.51,8.04,8.43,8,8.34,8H7.67C7.49,8.01,7.35,8.15,7.34,8.33V9c0.01,0.18,0.15,0.32,0.33,0.33h0.67C8.52,9.32,8.66,9.18,8.67,9  V8.34C8.67,8.25,8.64,8.16,8.57,8.1z M16.57,13.43c-0.06-0.06-0.14-0.1-0.23-0.1h-0.68c-0.18,0.01-0.32,0.15-0.33,0.33v0.67  c0.01,0.18,0.15,0.32,0.33,0.33h0.67c0.18-0.01,0.32-0.15,0.33-0.33v-0.66C16.66,13.58,16.63,13.49,16.57,13.43z M14,11  c-0.01-0.18-0.15-0.32-0.33-0.33H13c-0.18,0.01-0.32,0.15-0.33,0.33v0.67c0.01,0.18,0.15,0.32,0.33,0.33h0.67  c0.18-0.01,0.32-0.15,0.33-0.33V11L14,11z M11.33,8.34c0-0.18-0.15-0.33-0.33-0.34h-0.67C10.15,8.01,10.01,8.15,10,8.33V9  c0.01,0.18,0.15,0.32,0.33,0.33H11c0.18-0.01,0.32-0.15,0.33-0.33V8.34L11.33,8.34z M8.57,5.44c-0.06-0.06-0.14-0.1-0.23-0.1H7.67  C7.49,5.35,7.35,5.49,7.34,5.67v0.67c0.01,0.18,0.15,0.32,0.33,0.33h0.67c0.18-0.01,0.32-0.15,0.33-0.33V5.67  C8.67,5.58,8.63,5.5,8.57,5.44z M16.57,10.77c-0.06-0.06-0.14-0.1-0.23-0.1h-0.68c-0.18,0.01-0.32,0.15-0.33,0.33v0.67  c0.01,0.18,0.15,0.32,0.33,0.33h0.67c0.18-0.01,0.32-0.15,0.33-0.33V11C16.66,10.91,16.63,10.83,16.57,10.77z M14,8.34  c0-0.18-0.15-0.33-0.33-0.34H13c-0.18,0.01-0.32,0.15-0.33,0.33V9c0.01,0.18,0.15,0.32,0.33,0.33h0.67C13.85,9.32,13.99,9.18,14,9  V8.34L14,8.34z M11.33,5.67C11.32,5.49,11.18,5.35,11,5.34h-0.67C10.15,5.35,10.01,5.49,10,5.67v0.67c0.01,0.18,0.15,0.32,0.33,0.33  H11c0.18-0.01,0.32-0.15,0.33-0.33V5.67L11.33,5.67z M16.57,8.1C16.51,8.03,16.42,8,16.33,8h-0.67c-0.18,0.01-0.32,0.15-0.33,0.33V9  c0.01,0.18,0.15,0.32,0.33,0.33h0.67c0.18-0.01,0.32-0.15,0.33-0.33V8.34C16.66,8.25,16.63,8.16,16.57,8.1z M14,5.67  c-0.01-0.18-0.15-0.32-0.33-0.33H13c-0.18,0.01-0.32,0.15-0.33,0.33v0.67c0.01,0.18,0.15,0.32,0.33,0.33h0.67  c0.18-0.01,0.32-0.15,0.33-0.33V5.67L14,5.67z M16.57,5.44c-0.06-0.06-0.14-0.1-0.23-0.1h-0.68c-0.18,0.01-0.32,0.15-0.33,0.33v0.67  c0.01,0.18,0.15,0.32,0.33,0.33h0.67c0.18-0.01,0.32-0.15,0.33-0.33V5.67C16.66,5.58,16.63,5.5,16.57,5.44z M14,20v-2.34  c-0.01-0.18-0.15-0.32-0.33-0.33h-3.34c-0.18,0.01-0.32,0.15-0.33,0.33V20H6V4h12v16H14z M19.13,2.87c-0.12-0.13-0.29-0.2-0.47-0.2  H5.34c-0.37,0.01-0.66,0.3-0.67,0.67v17.32c0.01,0.37,0.3,0.66,0.67,0.67h13.32c0.37-0.01,0.66-0.3,0.67-0.67V3.34  C19.33,3.16,19.26,2.99,19.13,2.87z" style="fill: rgb(200, 200, 232);" vector-effect="non-scaling-stroke"/></g></svg>