<svg xmlns="http://www.w3.org/2000/svg" version="1.2" overflow="visible" preserveAspectRatio="none" viewBox="0 0 24 24" width="48" height="48"><g><path xmlns:default="http://www.w3.org/2000/svg" id="exclamation" d="M13.8,15.86c-0.12-0.13-0.29-0.2-0.47-0.2h-2.66c-0.37,0.01-0.66,0.3-0.67,0.67v2.33  c0.01,0.37,0.3,0.66,0.67,0.67h2.67c0.36-0.01,0.65-0.31,0.66-0.67v-2.33C14,16.15,13.93,15.98,13.8,15.86z M14.31,5.34  c0.01-0.18-0.06-0.35-0.18-0.47c-0.12-0.13-0.29-0.2-0.46-0.2h-3.34c-0.17,0-0.34,0.07-0.46,0.2C9.75,4.99,9.68,5.16,9.69,5.34  l0.29,8c0,0.18,0.08,0.35,0.21,0.47c0.12,0.13,0.29,0.2,0.47,0.2h2.67c0.18,0,0.35-0.07,0.47-0.2c0.13-0.13,0.2-0.3,0.2-0.48l0.29-8  l0,0L14.31,5.34z" style="fill: rgb(255, 255, 255);" vector-effect="non-scaling-stroke"/></g></svg>