<?xml version="1.0" standalone="no"?>
<svg version="1.1" preserveAspectRatio="xMidYMid meet" viewBox="0 0 490 490" class="ng-element" data-id="f7ba053019de3a0f7d18b896b9578687" style="overflow: visible; width: 40px; height: 40px; filter: none;" xmlns="http://www.w3.org/2000/svg"><g>
	<g>
		<path d="M469.25,448.4h-36.4V98.8c0-11.4-9.4-20.8-20.8-20.8s-20.8,9.4-20.8,20.8v349.6h-69.7V185.2c0-11.4-9.4-20.8-20.8-20.8    s-20.8,9.4-20.8,20.8v263.2h-70.7V287.1c0-11.4-9.4-20.8-20.8-20.8c-11.4,0-20.8,9.4-20.8,20.8v161.3h-69.7V322.5    c0-11.4-9.4-20.8-20.8-20.8s-20.8,9.4-20.8,20.8v125.9h-35.5c-11.4,0-20.8,9.4-20.8,20.8s9.4,20.8,20.8,20.8h447.3    c11.4,0,21.8-9.4,21.8-20.8C490.05,457.7,480.65,448.4,469.25,448.4z" fill="#FFFFFF" vector-effect="non-scaling-stroke"/>
		<path d="M52.05,214.3c6.1-1,146.6-33.7,254.9-142.3v40.3c0,11.4,9.4,20.8,20.8,20.8s20.8-9.4,20.8-21.8V20.8    c0-11.4-9.4-20.8-20.8-20.8h-91.5c-11.4,0-20.8,9.4-20.8,20.8s9.4,20.8,20.8,20.8h42.9c-99.4,102.2-235.4,134.2-236.4,134.2    c-11.5,2.1-17.7,12.5-15.7,23.9C30.25,213,44.35,216.9,52.05,214.3z" fill="#FFFFFF" vector-effect="non-scaling-stroke"/>
	</g>
</g><g>
</g><g>
</g><g>
</g><g>
</g><g>
</g><g>
</g><g>
</g><g>
</g><g>
</g><g>
</g><g>
</g><g>
</g><g>
</g><g>
</g><g>
</g></svg>