<?xml version="1.0" standalone="no"?>
<svg version="1.1" preserveAspectRatio="none" viewBox="0 0 800 800" class="ng-element" data-id="e904d793bcd86b16d1e3aff238143fda" style="fill: rgb(87, 93, 222); width: 34px; height: 34px;" xmlns="http://www.w3.org/2000/svg"><g><path xmlns:default="http://www.w3.org/2000/svg" id="user" d="M400,0C179.1,0,0,179.1,0,400s179.1,400,400,400s400-179.1,400-400S620.9,0,400,0z M400,178.2  c69.1,0,123.6,50.9,120,120c0,69.1-43.6,120-120,120s-120-50.9-120-120C276.4,229.1,330.9,178.2,400,178.2z M400,712.7  c-105.5,0-192.7-58.2-240-98.2c0,0,94.5-120,240-120s240,120,240,120C592.7,654.5,505.5,712.7,400,712.7z" style="fill: rgb(87, 93, 222);"/></g></svg>