<?xml version="1.0" encoding="UTF-8" standalone="no"?>
<!-- Created with Inkscape (http://www.inkscape.org/) -->

<svg
   xmlns:dc="http://purl.org/dc/elements/1.1/"
   xmlns:cc="http://creativecommons.org/ns#"
   xmlns:rdf="http://www.w3.org/1999/02/22-rdf-syntax-ns#"
   xmlns:svg="http://www.w3.org/2000/svg"
   xmlns="http://www.w3.org/2000/svg"
   xmlns:xlink="http://www.w3.org/1999/xlink"
   xmlns:sodipodi="http://sodipodi.sourceforge.net/DTD/sodipodi-0.dtd"
   xmlns:inkscape="http://www.inkscape.org/namespaces/inkscape"
   width="400"
   height="400"
   viewBox="0 0 400.00001 400.00001"
   id="svg2"
   version="1.1"
   inkscape:version="0.91 r13725"
   sodipodi:docname="transparent_blue.svg">
  <defs
     id="defs4">
    <linearGradient
       id="linearGradient4162"
       inkscape:collect="always">
      <stop
         id="stop4164"
         offset="0"
         style="stop-color:#4688ff;stop-opacity:1" />
      <stop
         id="stop4166"
         offset="1"
         style="stop-color:#000000;stop-opacity:1" />
    </linearGradient>
    <linearGradient
       inkscape:collect="always"
       id="linearGradient4156">
      <stop
         style="stop-color:#000000;stop-opacity:1"
         offset="0"
         id="stop4158" />
      <stop
         style="stop-color:#4688ff;stop-opacity:1"
         offset="1"
         id="stop4160" />
    </linearGradient>
    <linearGradient
       id="linearGradient4338"
       inkscape:collect="always">
      <stop
         id="stop4340"
         offset="0"
         style="stop-color:#000000;stop-opacity:1" />
      <stop
         id="stop4342"
         offset="1"
         style="stop-color:#4688ff;stop-opacity:1" />
    </linearGradient>
    <linearGradient
       inkscape:collect="always"
       id="linearGradient4332">
      <stop
         style="stop-color:#4688ff;stop-opacity:1"
         offset="0"
         id="stop4334" />
      <stop
         style="stop-color:#000000;stop-opacity:1"
         offset="1"
         id="stop4336" />
    </linearGradient>
    <linearGradient
       gradientTransform="matrix(0.48499971,-0.00800156,0.00747774,0.52721281,-306.35307,-80.506833)"
       inkscape:collect="always"
       xlink:href="#linearGradient4156"
       id="linearGradient4547-2-6"
       x1="-68.116447"
       y1="487.87256"
       x2="-62.342773"
       y2="482.59537"
       gradientUnits="userSpaceOnUse" />
    <linearGradient
       inkscape:collect="always"
       xlink:href="#linearGradient4162"
       id="linearGradient4547-3"
       x1="-68.116447"
       y1="487.87256"
       x2="-62.342773"
       y2="482.59537"
       gradientUnits="userSpaceOnUse"
       gradientTransform="matrix(0.48505645,0,0,0.5272745,-335.24337,-42.319544)" />
    <linearGradient
       inkscape:collect="always"
       xlink:href="#linearGradient4338"
       id="linearGradient4367"
       gradientUnits="userSpaceOnUse"
       gradientTransform="matrix(0.36125692,0.39142938,-0.32624574,0.44031577,-242.58929,84.017825)"
       x1="-68.116447"
       y1="487.87256"
       x2="-62.342773"
       y2="482.59537" />
    <linearGradient
       inkscape:collect="always"
       xlink:href="#linearGradient4332"
       id="linearGradient4547-3-3"
       x1="-68.116447"
       y1="487.87256"
       x2="-62.342773"
       y2="482.59537"
       gradientUnits="userSpaceOnUse"
       gradientTransform="matrix(0.56986707,0,0,0.62067746,-406.52031,-177.28807)" />
  </defs>
  <sodipodi:namedview
     id="base"
     pagecolor="#ffffff"
     bordercolor="#666666"
     borderopacity="1.0"
     inkscape:pageopacity="0.0"
     inkscape:pageshadow="2"
     inkscape:zoom="1.4142136"
     inkscape:cx="33.870287"
     inkscape:cy="172.42455"
     inkscape:document-units="px"
     inkscape:current-layer="layer1"
     showgrid="false"
     showborder="true"
     inkscape:object-paths="false"
     inkscape:snap-intersection-paths="false"
     inkscape:object-nodes="false"
     inkscape:snap-smooth-nodes="false"
     inkscape:window-width="1855"
     inkscape:window-height="1056"
     inkscape:window-x="65"
     inkscape:window-y="24"
     inkscape:window-maximized="1"
     units="px"
     fit-margin-top="0"
     fit-margin-left="0"
     fit-margin-right="0"
     fit-margin-bottom="0" />
  <metadata
     id="metadata7">
    <rdf:RDF>
      <cc:Work
         rdf:about="">
        <dc:format>image/svg+xml</dc:format>
        <dc:type
           rdf:resource="http://purl.org/dc/dcmitype/StillImage" />
        <dc:title></dc:title>
      </cc:Work>
    </rdf:RDF>
  </metadata>
  <g
     inkscape:label="Layer 1"
     inkscape:groupmode="layer"
     id="layer1"
     transform="translate(561.11072,6.4113369)">
    <rect
       style="opacity:1;fill:#fe0000;fill-opacity:0;stroke:none"
       id="rect4271-0"
       width="11.378239"
       height="140.03262"
       x="-368.28711"
       y="212.32434" />
    <path
       inkscape:connector-curvature="0"
       style="opacity:1;fill:#4688ff;fill-opacity:1;stroke:none"
       d="m -287.16653,89.162602 a 5.820678,6.3272942 0 0 0 -3.87941,1.620263 l -0.27294,0.317296 -0.42396,0.491031 -58.95842,68.361268 -41.54473,-49.95562 -0.003,-0.005 -6.28892,-7.56205 a 46.807948,51.906459 0 0 0 -31.04865,-13.147933 46.807948,51.906459 0 0 0 -22.96544,6.757348 36.013607,39.148137 0 0 0 -18.99207,34.482845 l 0,18.48528 0,15.12772 0,58.97988 0,19.74722 0,17.13647 0,0.002 a 36.013607,39.148137 0 0 0 30.41998,38.64874 46.807948,51.906459 0 0 0 10.56768,1.42361 46.807948,51.906459 0 0 0 30.31371,-12.37218 l 6.59767,-7.64891 a 46.807948,51.906459 0 0 0 7.8e-4,-0.002 l 43.36475,-50.28135 58.6989,68.06206 0.39822,0.46207 a 5.820678,6.3272942 0 0 0 4.03714,1.77952 l 44.63663,0 a 5.820678,6.3272942 0 0 0 5.82133,-6.32785 5.820678,6.3272942 0 0 0 -1.76519,-4.53023 l 0.002,-0.006 -81.82878,-94.2252 81.76836,-94.81155 -7.8e-4,-0.008 a 5.820678,6.3272942 0 0 0 1.90615,-4.6738 5.820678,6.3272942 0 0 0 -5.82022,-6.326637 l -44.74066,0 z m -138.73787,51.932978 13.3732,16.49343 16.77271,19.44682 15.16189,17.58165 -15.73127,18.23915 a 46.807948,51.906459 0 0 1 0,0.002 l -15.3789,17.83137 -0.008,-0.002 a 4.8505645,5.272745 0 0 1 -0.0369,0.0555 l -1.03585,1.20042 a 4.8505645,5.272745 0 0 1 -0.16555,0.12668 l -13.58462,15.7237 0.31209,-52.65325 0.32105,-54.04428 z m 13.64502,16.82761 0.11523,0.14237 0.005,-0.002 -0.12081,-0.13995 z"
       id="rect4156-2" />
    <path
       style="fill:url(#linearGradient4547-3);fill-opacity:1;fill-rule:evenodd;stroke:none;stroke-width:1px;stroke-linecap:butt;stroke-linejoin:miter;stroke-opacity:1"
       d="m -380.59614,194.61722 30.31603,35.15129 -2.76508,3.20613 -29.99145,-35.52765 z"
       id="path4539-91"
       inkscape:connector-curvature="0" />
    <path
       style="fill:url(#linearGradient4547-2-6);fill-opacity:1;fill-rule:evenodd;stroke:none;stroke-width:1px;stroke-linecap:butt;stroke-linejoin:miter;stroke-opacity:1"
       d="m -348.34035,157.15036 30.81099,34.64708 -2.71926,3.25136 -30.4918,-35.02875 z"
       id="path4539-9-2"
       inkscape:connector-curvature="0" />
    <path
       inkscape:connector-curvature="0"
       style="fill:url(#linearGradient4367);fill-opacity:1;fill-rule:evenodd;stroke:none;stroke-width:1px;stroke-linecap:butt;stroke-linejoin:miter;stroke-opacity:1"
       d="m -422.96855,245.28001 -1.54485,0.16977 -2.00983,2.32798 0.33956,51.76608 4.04413,-0.4451 -0.82901,-53.81873 z m -3.55621,0.39156 -0.0122,0.002 0.006,0.99268 0.006,-0.99421 z"
       id="path4365" />
    <path
       inkscape:connector-curvature="0"
       style="fill:url(#linearGradient4547-3-3);fill-opacity:1;fill-rule:evenodd;stroke:none;stroke-width:1px;stroke-linecap:butt;stroke-linejoin:miter;stroke-opacity:1"
       d="m -459.80317,101.6201 -2.86638,3.33136 35.23471,41.82095 1.50661,-1.75133 0.0244,-3.92483 1.71768,1.90276 -35.61709,-41.37891 z"
       id="path4539-91-6" />
  </g>
</svg>
