<?xml version="1.0" standalone="no"?>
<svg version="1.1" preserveAspectRatio="none" viewBox="0 0 800 800" class="ng-element" data-id="c596311c27c44ce7060d893230642649" style="fill: rgb(255, 255, 255); width: 25px; height: 25px;" xmlns="http://www.w3.org/2000/svg"><g><path xmlns:default="http://www.w3.org/2000/svg" d="M405,406.7c121.1,0,192.9-84.9,197.4-201.1C606.9,89.4,517.1,0,400.5,0C288.3,0,194.1,84.9,198.6,201.1  C207.5,317.3,279.3,406.7,405,406.7z" style="fill: rgb(255, 255, 255);"/><path xmlns:default="http://www.w3.org/2000/svg" d="M795.3,688.2c-2.2-43.6-31.4-71.5-67.3-98.3c-85.2-58.1-167.1-80.9-282.7-89.4c-15.5-1.1-30.4-1.7-44.9-2  c-14.5,0.2-29.4,0.8-44.9,2C240,509,158.2,531.8,72.9,589.9C37,616.7,7.9,644.7,5.6,688.2s4.1,67.6,11.2,84.9S30.3,800,48.2,800  h352.2h352.2c17.9,0,24.3-9.5,31.4-26.8C791.2,755.9,797.5,731.8,795.3,688.2z" style="fill: rgb(255, 255, 255);"/></g></svg>