<?xml version="1.0" standalone="no"?>
<!DOCTYPE svg PUBLIC "-//W3C//DTD SVG 20010904//EN"
 "http://www.w3.org/TR/2001/REC-SVG-20010904/DTD/svg10.dtd">
<svg version="1.0" xmlns="http://www.w3.org/2000/svg"
 width="700.000000pt" height="700.000000pt" viewBox="0 0 700.000000 700.000000"
 preserveAspectRatio="xMidYMid meet">
<metadata>
Created by potrace 1.11, written by Peter Selinger 2001-2013
</metadata>
<g transform="translate(0.000000,700.000000) scale(0.100000,-0.100000)"
fill="#000000" stroke="none">
<path d="M0 3500 l0 -3500 3500 0 3500 0 0 3500 0 3500 -3500 0 -3500 0 0
-3500z m3735 2486 c88 -4 171 -8 185 -10 14 -3 52 -7 85 -10 239 -22 561 -138
844 -307 164 -97 335 -266 454 -449 106 -165 223 -425 247 -550 29 -154 43
-439 55 -1135 2 -165 7 -433 10 -595 2 -162 7 -614 11 -1005 3 -390 7 -806 8
-923 1 -117 0 -216 -3 -221 -9 -13 -221 -98 -266 -107 -5 -1 -28 -6 -50 -12
-36 -10 -79 -15 -215 -27 -76 -6 -131 -16 -285 -50 -113 -24 -168 -35 -210
-40 -47 -5 -69 -7 -220 -20 -313 -27 -1293 -27 -1620 0 -210 17 -340 36 -420
62 -59 18 -217 77 -260 97 -136 61 -340 171 -365 196 -3 3 -40 31 -82 63 -230
174 -395 432 -473 740 -25 99 -27 111 -51 262 -28 182 -22 501 12 617 3 9 7
27 9 39 20 105 104 301 173 408 163 248 404 452 728 615 140 70 357 137 489
151 33 4 62 8 65 10 3 2 41 6 85 10 44 4 94 9 110 11 17 2 194 6 395 9 803 12
852 14 915 37 93 35 94 82 8 323 -111 312 -256 448 -533 500 -14 3 -36 7 -50
10 -108 22 -516 22 -740 0 -19 -2 -69 -6 -110 -10 -41 -3 -93 -8 -115 -10 -22
-3 -62 -7 -90 -10 -27 -3 -68 -8 -90 -11 -63 -8 -332 -53 -381 -64 -62 -14
-167 -14 -192 -1 -36 19 -51 64 -67 201 -3 30 -8 66 -11 80 -2 14 -6 34 -8 46
-2 12 -7 45 -11 75 -4 30 -25 125 -46 212 -46 181 -54 240 -54 387 0 121 13
161 59 189 52 32 229 86 349 106 17 3 39 8 47 10 18 5 194 32 265 40 28 3 68
7 90 10 42 5 100 11 175 20 25 3 86 8 135 11 50 3 113 7 140 9 28 3 147 7 265
11 118 4 216 7 217 8 3 3 198 -1 388 -8z"/>
<path d="M3457 2804 c-1 -1 -33 -4 -72 -7 -38 -3 -91 -11 -118 -16 -26 -6 -64
-14 -85 -17 -83 -12 -262 -67 -299 -92 -153 -102 -273 -295 -273 -437 0 -107
103 -306 210 -403 41 -37 98 -63 164 -73 33 -6 72 -12 86 -15 14 -2 46 -6 73
-9 26 -3 71 -8 100 -11 53 -5 78 -7 277 -20 135 -8 395 -9 460 -1 99 12 171
30 178 46 16 32 4 787 -13 869 -23 108 -24 110 -80 131 -28 11 -72 22 -96 26
-24 3 -51 8 -59 10 -46 12 -442 29 -453 19z"/>
</g>
</svg>
