<?xml version="1.0" encoding="iso-8859-1"?>
<!-- Generator: Adobe Illustrator 19.0.0, SVG Export Plug-In . SVG Version: 6.00 Build 0)  -->
<svg xmlns="http://www.w3.org/2000/svg" xmlns:xlink="http://www.w3.org/1999/xlink" version="1.1" id="Capa_1" x="0px" y="0px" viewBox="0 0 512 512" style="enable-background:new 0 0 512 512;" xml:space="preserve" width="512px" height="512px">
<g>
	<g>
		<path d="M496.588,0H26.237c-5.523,0-10,4.477-10,10v376.826C9.359,399.003,5.412,413.045,5.412,428v5c0,43.56,35.439,79,79,79h407    c5.522,0,10-4.477,10-10v-54v-44.464c0-21.8-17.735-39.536-39.536-39.536c-21.801,0-39.536,17.736-39.536,39.536V438h-21.159    v-34.464c0-21.8-17.735-39.536-39.536-39.536c-21.801,0-39.536,17.736-39.536,39.536V438h-21.16v-34.464    c0-21.8-17.735-39.536-39.536-39.536c-21.801,0-39.536,17.736-39.536,39.536V438h-48.464v-10c0-46.318-37.683-84-84-84    c-20.161,0-38.682,7.144-53.175,19.028V97.111h168.678v112.995c0,5.523,4.478,10,10,10h2.249v50.697    c0,0.348,0.018,0.691,0.053,1.03l-22.184,27.164c-2.816,3.448-3.014,8.344-0.483,12.007l27.621,40    c1.94,2.811,5.063,4.319,8.237,4.319c1.959,0,3.939-0.575,5.674-1.772c4.544-3.138,5.685-9.367,2.546-13.911l-23.35-33.814    l20.435-25.023h51.399l20.435,25.023l-23.35,33.814c-3.139,4.544-1.998,10.773,2.546,13.911c1.735,1.197,3.714,1.772,5.674,1.772    c3.175,0,6.297-1.509,8.237-4.319l27.621-40c2.53-3.664,2.333-8.559-0.483-12.007l-22.184-27.164    c0.035-0.339,0.053-0.682,0.053-1.03v-50.697h2.249c5.522,0,10-4.477,10-10V97.111h168.678V199c0,5.523,4.478,10,10,10    c5.523,0,10-4.477,10-10V10C506.588,4.477,502.11,0,496.588,0z M481.412,492h-51.27l34-34h17.27V492z M442.34,403.536    c0-10.772,8.764-19.536,19.536-19.536c10.772,0,19.536,8.764,19.536,19.536V438H442.34V403.536z M435.857,458l-34,34h-68.381    l34-34H435.857z M342.108,403.536c0-10.772,8.764-19.536,19.536-19.536c10.772,0,19.536,8.764,19.536,19.536V438h-39.072V403.536z     M339.191,458l-34,34h-68.38l34-34H339.191z M241.876,403.536c0-10.772,8.764-19.536,19.536-19.536    c10.772,0,19.536,8.764,19.536,19.536V438h-39.072V403.536z M89.412,364c35.29,0,64,28.71,64,64v20c0,5.523,4.478,10,10,10h79.114    l-34,34H84.412c-32.533,0-59-26.467-59-59v-5C25.412,392.71,54.122,364,89.412,364z M285.661,260.803h-48.497v-40.697h48.497    V260.803z M297.91,200.106h-2.249h-24.249v-54.439h8.667c5.522,0,10-4.477,10-10s-4.478-10-10-10h-37.333c-5.522,0-10,4.477-10,10    s4.478,10,10,10h8.666v54.439h-24.248h-2.249V97.111h72.995V200.106z M486.588,75v2.111H36.237V75V58.555h375.019    c5.522,0,10-4.477,10-10s-4.478-10-10-10H36.237V20h450.351V75z" fill="#575dde"/>
	</g>
</g>
<g>
	<g>
		<path d="M89.412,384c-24.262,0-44,19.738-44,44c0,24.262,19.738,44,44,44c24.262,0,44-19.738,44-44    C133.412,403.738,113.674,384,89.412,384z M89.412,452c-13.233,0-24-10.767-24-24c0-13.233,10.767-24,24-24    c13.233,0,24,10.767,24,24C113.412,441.233,102.645,452,89.412,452z" fill="#575dde"/>
	</g>
</g>
<g>
	<g>
		<path d="M456.647,46.6c-0.127-0.64-0.317-1.27-0.567-1.87c-0.25-0.6-0.561-1.18-0.92-1.73c-0.36-0.54-0.78-1.06-1.24-1.52    c-0.46-0.46-0.98-0.88-1.52-1.24c-0.55-0.36-1.13-0.67-1.73-0.92c-0.601-0.25-1.23-0.44-1.87-0.57c-3.25-0.65-6.7,0.41-9.02,2.73    c-1.87,1.86-2.931,4.44-2.931,7.07c0,0.66,0.061,1.31,0.19,1.96c0.13,0.64,0.319,1.27,0.569,1.87c0.25,0.6,0.56,1.18,0.921,1.73    c0.369,0.54,0.779,1.05,1.25,1.52c0.46,0.46,0.97,0.87,1.51,1.24c0.55,0.36,1.13,0.67,1.729,0.92c0.601,0.25,1.23,0.44,1.87,0.57    c0.65,0.13,1.3,0.19,1.96,0.19c0.65,0,1.311-0.06,1.95-0.19c0.64-0.13,1.27-0.32,1.87-0.57c0.6-0.25,1.18-0.56,1.73-0.92    c0.54-0.37,1.061-0.78,1.52-1.24c0.46-0.47,0.88-0.98,1.24-1.52c0.359-0.55,0.67-1.13,0.92-1.73c0.25-0.6,0.439-1.23,0.569-1.87    c0.131-0.65,0.2-1.3,0.2-1.96C456.847,47.9,456.778,47.25,456.647,46.6z" fill="#575dde"/>
	</g>
</g>
<g>
</g>
<g>
</g>
<g>
</g>
<g>
</g>
<g>
</g>
<g>
</g>
<g>
</g>
<g>
</g>
<g>
</g>
<g>
</g>
<g>
</g>
<g>
</g>
<g>
</g>
<g>
</g>
<g>
</g>
</svg>
