<?xml version="1.0" encoding="iso-8859-1"?>
<!-- Generator: Adobe Illustrator 18.0.0, SVG Export Plug-In . SVG Version: 6.00 Build 0)  -->
<!DOCTYPE svg PUBLIC "-//W3C//DTD SVG 1.1//EN" "http://www.w3.org/Graphics/SVG/1.1/DTD/svg11.dtd">
<svg xmlns="http://www.w3.org/2000/svg" xmlns:xlink="http://www.w3.org/1999/xlink" version="1.1" id="Capa_1" x="0px" y="0px" viewBox="0 0 494.703 494.703" style="enable-background:new 0 0 494.703 494.703;" xml:space="preserve" width="512px" height="512px">
<path d="M30.071,130.735c35.81,33.213,181.52,162.355,181.52,162.355h-72.284c-17.303,0-31.38,14.077-31.38,31.38v138.852  c0,17.304,14.077,31.381,31.38,31.381h216.107c17.303,0,31.38-14.077,31.38-31.381V324.471c0-17.303-14.077-31.38-31.38-31.38  h-72.372c0,0,134.906-121.198,180.77-161.661c1.06-0.935,2.098-1.924,2.819-3.193c1.867-3.282,1.828-7.314-0.102-10.559  C423.363,45.092,339.383,0,247.362,0C155.339,0,71.359,45.092,28.194,117.678c-1.93,3.245-2.008,7.12-0.142,10.402  C28.558,128.968,29.095,129.83,30.071,130.735z M64.69,133.545h172.172v153.973L64.69,133.545z M247.361,21  C247.361,21,247.362,21,247.361,21c20.475,0,36.757,14.791,46.81,27.199c12.995,16.04,24.009,38.109,32.204,64.346H168.348  c8.195-26.235,19.209-48.306,32.204-64.346C210.606,35.791,226.887,21,247.361,21z M257.862,133.545h172.081L257.862,287.436  V133.545z M437.983,112.545h-89.68c-9.13-31.494-22.123-58.197-37.815-77.565c-2.368-2.923-4.792-5.526-7.263-7.852  C358.339,39.422,406.578,69.66,437.983,112.545z M191.494,27.128c-2.469,2.325-4.89,4.929-7.258,7.851  c-15.692,19.368-28.685,46.071-37.815,77.565H56.74C88.144,69.662,136.38,39.424,191.494,27.128z M273.922,473.703h-53.124v-51.185  h53.124V473.703z M365.794,324.471v138.852c0,5.724-4.656,10.381-10.38,10.381h-60.492v-61.685c0-5.799-4.701-10.5-10.5-10.5  h-74.124c-5.799,0-10.5,4.701-10.5,10.5v61.685h-60.492c-5.724,0-10.38-4.657-10.38-10.381V324.471c0-5.724,4.657-10.38,10.38-10.38  h216.107C361.138,314.091,365.794,318.747,365.794,324.471z" fill="#575dde"/>
<g>
</g>
<g>
</g>
<g>
</g>
<g>
</g>
<g>
</g>
<g>
</g>
<g>
</g>
<g>
</g>
<g>
</g>
<g>
</g>
<g>
</g>
<g>
</g>
<g>
</g>
<g>
</g>
<g>
</g>
</svg>
