<?xml version="1.0" encoding="iso-8859-1"?>
<!-- Generator: Adobe Illustrator 19.0.0, SVG Export Plug-In . SVG Version: 6.00 Build 0)  -->
<svg xmlns="http://www.w3.org/2000/svg" xmlns:xlink="http://www.w3.org/1999/xlink" version="1.1" id="Capa_1" x="0px" y="0px" viewBox="0 0 512 512" style="enable-background:new 0 0 512 512;" xml:space="preserve" width="512px" height="512px">
<g>
	<g>
		<path d="M499.727,307.701c-12.301-9-29.401-7.2-39.6,3.9l-81,100.8c-5.7,6-16.5,9.6-22.2,9.6c-57.449,0-43.678,0-101.175,0    c-4.805,0-9.346,2.314-12.158,6.211c-4.878,6.694-14.238,8.188-20.947,3.369c-6.709-4.849-8.218-14.224-3.369-20.947    C227.7,398.973,241.338,392,255.752,392c20.38,0,74.449,0,91.274,0c16.5,0,30-13.5,30-30s-13.5-30-30-30    c-23.813,0-54.593,0-78.6,0c-3.102,0-7.343-1.425-9.994-3.75c-19.775-17.39-35.369-27.543-62.849-31.086    c-0.016-0.002-0.031-0.002-0.048-0.004c-29.123-3.748-60.504,4.336-83.885,24.893c-5.806,5.116-13.063,7.787-20.625,8.906V512h256    c28.201,0,55.202-13.5,72.002-36l86.999-126C515.927,336.8,513.226,317.601,499.727,307.701z" fill="#575dde"/>
	</g>
</g>
<g>
	<g>
		<path d="M15.026,332c-8.284,0-15,6.716-15,15v150c0,8.284,6.716,15,15,15h46V332H15.026z" fill="#575dde"/>
	</g>
</g>
<g>
	<g>
		<path d="M317.026,0c-82.705,0-150,68.295-150,151s67.295,151,150,151s150-68.295,150-151S399.731,0,317.026,0z M279.526,91    c8.284,0,15,6.716,15,15s-6.716,15-15,15s-15-6.716-15-15S271.242,91,279.526,91z M354.526,211c-8.284,0-15-6.716-15-15    s6.716-15,15-15s15,6.716,15,15S362.81,211,354.526,211z M366.055,115.61l-75,90c-5.297,6.341-14.722,7.233-21.138,1.919    c-6.357-5.303-7.222-14.766-1.919-21.138l75-90c5.303-6.357,14.751-7.222,21.138-1.919    C370.493,99.775,371.358,109.238,366.055,115.61z" fill="#575dde"/>
	</g>
</g>
<g>
</g>
<g>
</g>
<g>
</g>
<g>
</g>
<g>
</g>
<g>
</g>
<g>
</g>
<g>
</g>
<g>
</g>
<g>
</g>
<g>
</g>
<g>
</g>
<g>
</g>
<g>
</g>
<g>
</g>
</svg>
