<?xml version="1.0" standalone="no"?>
<svg version="1.1" preserveAspectRatio="none" viewBox="-10.488000000000003 0 69 69" class="ng-element" data-id="16ddc7ca1934c29657eb55b75b8fde60" style="fill: rgb(255, 255, 255); width: 22px; height: 22px; pointer-events: all;" xmlns="http://www.w3.org/2000/svg"><g><g xmlns:default="http://www.w3.org/2000/svg" id="Discard_x2C_Delete">
	<path d="M44.7,27.9c0-0.3-0.2-0.6-0.5-0.8c-2.1,2.1-10.4,2.5-20.4,2.5c-10,0-18.4-0.3-20.4-2.5c-0.3,0.3-0.4,0.5-0.5,0.8h0l0,0.2   c0,0,0,0,0,0.1c0,0,0,0.1,0,0.1l1.6,33.3h0c0.1,2.6,3.1,6.6,19.3,6.6c16.2,0,19.1-4,19.3-6.6h0l1.6-33.3c0,0,0-0.1,0-0.1   c0,0,0,0,0-0.1L44.7,27.9L44.7,27.9z" style="fill: rgb(255, 255, 255);"/>
	<path d="M33.7,10.5V2.6c0-1.4-1.2-2.6-2.6-2.6H15.6C14.1,0,13,1.2,13,2.6v8c-7.7,0.9-13,2.6-13,4.7v3.9c0,0.8,0.8,1.6,2.3,2.2   c3.8,1.8,12,3,21.5,3c9.5,0,17.7-1.2,21.5-3c1.4-0.7,2.3-1.4,2.3-2.2v-3.9C47.6,13.1,41.9,11.3,33.7,10.5z M18,10.1l-0.7,0V6.9   c0-1.4,0.2-2.6,0.4-2.6c0.2,0,1.6,0,3,0H26c1.4,0,2.8,0,3,0c0.2,0,0.4,1.2,0.4,2.6v3.2C27.6,10,25.7,10,23.8,10   C21.8,10,19.8,10,18,10.1z" style="fill: rgb(255, 255, 255);"/>
</g></g></svg>