<?xml version="1.0" standalone="no"?>
<svg version="1.1" preserveAspectRatio="none" viewBox="0 0 65 65" class="ng-element" data-id="b972099c0fc61d70ebaa1a1aac0b7f88" style="fill: rgb(200, 200, 232); width: 32px; height: 32px; pointer-events: all;" xmlns="http://www.w3.org/2000/svg"><g><path xmlns:default="http://www.w3.org/2000/svg" id="Search_1_" d="M63.7,54.4L51.6,42.3c-1.1-1.1-3-1-4.9,0L41.3,37c6.9-9,6.3-22-2-30.3c-9-9-23.6-9-32.6,0  c-9,9-9,23.6,0,32.6c8.3,8.3,21.2,8.9,30.3,2l5.3,5.3c-1,1.9-1.1,3.9,0,5l12.2,12.2c1.5,1.5,4.9,0.7,7.4-1.9  C64.4,59.3,65.3,56,63.7,54.4z M10.2,35.9c-7.1-7.1-7.1-18.6,0-25.7c7.1-7.1,18.6-7.1,25.7,0c7.1,7.1,7.1,18.6,0,25.7  C28.8,43,17.3,43,10.2,35.9z" style="fill: rgb(200, 200, 232);"/></g></svg>